<?xml version="1.0" encoding="utf-8"?>
<svg version="1.1" xmlns="http://www.w3.org/2000/svg" xmlns:xlink="http://www.w3.org/1999/xlink" x="0px" y="0px"
     viewBox="0 0 750 500" style="enable-background:new 0 0 750 500;" xml:space="preserve">
  <g id="BACKGROUND">
    <rect style="fill:#000000;" width="750" height="500"/>
  </g>
  <g id="OBJECTS">
    <g>
      <defs>
        <rect id="SVGID_1_" width="750" height="500"/>
      </defs>
      <clipPath id="SVGID_00000043459641611608704100000001505249517961491344_">
        <use xlink:href="#SVGID_1_" style="overflow:visible;"/>
      </clipPath>

      <path style="clip-path:url(#SVGID_00000043459641611608704100000001505249517961491344_);fill:none;stroke:#FFFFFF;stroke-width:0.8246;stroke-miterlimit:10;" d="
        M492.778,514.4c-13.718-58.793-6.369-121.015,40.665-137.673c43.19-15.297,86.719,25.477,114.646,7.839
        c27.927-17.638-6.573-117.018,30.866-144.042c45.521-32.857,113.176,57.813,113.176,57.813"/>

      <path style="clip-path:url(#SVGID_00000043459641611608704100000001505249517961491344_);fill:rgba(255,255,255,0.5);" d="
        M226.565,47.74c0.901,36.331,15.452,71.208,47.221,72.725c46.693,2.229,86.024-46.321,133.493-40.309
        c34.666,4.39,49.228,48.22,66.826,74.094c23.841,35.053,63.231,58.907,101.467,30.565c36.31-26.915-0.049-97.387,14.63-118.738
        c11.58-16.844,24.205-7.611,37.84-16.288c18.492-11.768,12.824-31.884,1.49-49.789H231.664
        C227.895,15.182,226.167,31.68,226.565,47.74z"/>

      <path style="opacity:0.29;clip-path:url(#SVGID_00000043459641611608704100000001505249517961491344_);fill:rgb(128,128,128);" d="
        M219.363,450.046c1.234-22.244,7.738-51.608-7.736-71.186c-14.001-17.714-38.025-19.232-60.111-17.73
        c-18.022,1.225-45.249,9.01-62.965,2.017c-22.291-8.799-15.319-37.291-12.843-54.072c2.744-18.6,5.639-48.155-7.36-64.843
        c-17.514-22.485-47.196-24.134-74.87-17.666v275.313h234.299C218.78,486.137,218.347,468.379,219.363,450.046z"/>

      <path style="clip-path:url(#SVGID_00000043459641611608704100000001505249517961491344_);fill:none;stroke:#FFFFFF;stroke-width:0.6055;stroke-miterlimit:10;" d="
        M233.204,461.594c1.705-38.297,19.607-71.968,6.059-93.384c-13.194-20.858-41.964-21.224-66.338-19.566
        c-19.888,1.352-49.936,9.943-69.487,2.225c-24.6-9.711-16.905-41.154-14.173-59.673c3.029-20.526,6.223-53.143-8.122-71.56
        C61.816,194.823,7.231,199.413-23.31,206.552l1.515,307.96l274.038-5.368C246.276,505.546,231.958,489.592,233.204,461.594z"/>

      <path style="clip-path:url(#SVGID_00000043459641611608704100000001505249517961491344_);fill:rgba(255,255,255,0.5);" d="
        M195.707,472.092c1.234-22.244,7.738-51.608-7.736-71.186c-14-17.714-38.025-19.232-60.111-17.73
        c-18.022,1.225-45.249,9.01-62.965,2.017c-22.291-8.799-15.318-37.292-12.842-54.072c2.744-18.6,5.639-48.155-7.36-64.843
        c-17.514-22.485-47.196-24.135-74.87-17.666v275.313h234.299C195.124,508.183,194.69,490.425,195.707,472.092z"/>

      <path style="opacity:0.29;clip-path:url(#SVGID_00000043459641611608704100000001505249517961491344_);fill:rgb(128,128,128);" d="
        M694.886,263.864c-19.31,10.724-26.13,32.648-27.389,61.198c-0.845,19.157,1.68,52.902-13.016,65.078
        c-16.425,13.609-42.406,2.519-68.551-0.412c-22.95-2.573-43.201,6.619-55.308,28.542c-16.229,29.389-15.21,59.664-14.765,84.254
        H757.39v-216.82c-8.476-5.675-16.104-13.112-24.601-18.487C718.043,257.891,705.32,258.069,694.886,263.864z"/>

      <circle style="clip-path:url(#SVGID_00000043459641611608704100000001505249517961491344_);fill:rgba(255,255,255,0.5);" cx="56.542" cy="161.43" r="28.101"/>
      
      <circle style="clip-path:url(#SVGID_00000043459641611608704100000001505249517961491344_);fill:rgba(255,255,255,0.5);" cx="59.926" cy="167.637" r="16.582"/>
      
      <circle style="clip-path:url(#SVGID_00000043459641611608704100000001505249517961491344_);fill:rgba(255,255,255,0.5);" cx="432.528" cy="122.265" r="11.41"/>
      
      <circle style="clip-path:url(#SVGID_00000043459641611608704100000001505249517961491344_);fill:rgba(255,255,255,0.5);" cx="270.599" cy="461.869" r="16.338"/>
      
      <circle style="clip-path:url(#SVGID_00000043459641611608704100000001505249517961491344_);fill:rgba(255,255,255,0.5);" cx="264.858" cy="456.538" r="7.066"/>
      
      <path style="clip-path:url(#SVGID_00000043459641611608704100000001505249517961491344_);fill:rgb(192,192,192);" d="M164.98,477.334
        c3.433-15.199-5.577-27.226-9.057-40.29c-4.764-16.015-0.213-30.823,1.327-46.35c5.747-47.058-1.117-76.13,2.756-103.938
        c-22.388,4.801-36.789,24.54-45.65,43.176c-11.622,23.088-15.007,48.147-9.071,73.423C97.364,476.277,131.137,497.651,164.98,477.334z"/>
    </g>
  </g>
</svg>
