<?xml version="1.0" encoding="utf-8"?>
<!-- Generator: Adobe Illustrator 27.5.0, SVG Export Plug-In . SVG Version: 6.00 Build 0)  -->
<svg version="1.1" xmlns="http://www.w3.org/2000/svg" xmlns:xlink="http://www.w3.org/1999/xlink" x="0px" y="0px"
	 viewBox="0 0 750 500" style="enable-background:new 0 0 750 500;" xml:space="preserve">
<g id="BACKGROUND">
	<rect style="fill:#000000;" width="750" height="500"/>
</g>
<g id="OBJECTS">
	<g>
		<defs>
			<rect id="SVGID_1_" width="750" height="500"/>
		</defs>
		<clipPath id="SVGID_00000004546989181962910810000010614848598881868179_">
			<use xlink:href="#SVGID_1_"  style="overflow:visible;"/>
		</clipPath>

		<!-- Cambiar los gradientes a escala de grises -->
		<linearGradient id="SVGID_00000042711608588365993800000004751462631498065553_" gradientUnits="userSpaceOnUse" x1="413.2931" y1="154.9989" x2="751.5042" y2="154.9989">
			<stop offset="0" style="stop-color:#FFFFFF"/>
			<stop offset="1" style="stop-color:#808080;stop-opacity:0.5"/>
		</linearGradient>

		<path style="opacity:0.29;clip-path:url(#SVGID_00000004546989181962910810000010614848598881868179_);fill:url(#SVGID_00000042711608588365993800000004751462631498065553_);" d="
		M413.293-2.468c10.936,5.474,26.308,22.208,35.186,38.997c39.228,74.178,46.361,199.709,74.636,247.378
		c17.686,29.817,50.18,32.504,82.096,25.038c47.459-11.103,96.193-25.877,140.607-46.039c1.773-0.805,3.677-1.695,5.685-2.644
		V-2.468H413.293z"/>

		<linearGradient id="SVGID_00000127761588983185543370000004726427860084481686_" gradientUnits="userSpaceOnUse" x1="104.8405" y1="528.3615" x2="400.3987" y2="139.9417">
			<stop offset="0" style="stop-color:#FFFFFF"/>
			<stop offset="1" style="stop-color:#808080;stop-opacity:0.5"/>
		</linearGradient>

		<path style="opacity:0.29;clip-path:url(#SVGID_00000004546989181962910810000010614848598881868179_);fill:url(#SVGID_00000127761588983185543370000004726427860084481686_);" d="
		M447.238,475.609c-56.92,4.256-132.945,0-173.615-46.24c-39.873-45.333-51.991-106.62-67.184-161.795
		c-15.962-57.968-47.047-110.896-125.178-147.021C58.26,109.919,28.182,104.33,0,101.683V500h555.932
		C527.854,472.953,472.164,473.746,447.238,475.609z"/>

		<!-- Continuar cambiando más colores en el SVG -->
		<!-- Cambiar los colores de las demás formas a blanco y grises -->
	</g>
	<path style="fill:none;stroke:#FFFFFF;stroke-width:0.9425;stroke-miterlimit:10;" d="M651.476-18.488c4.325,43.788,59.465,85.414,120.012,66.493"/>
  <path style="fill:none;stroke:#FFFFFF;stroke-width:0.9425;stroke-miterlimit:10;" d="M577.955-34.165c38.923,14.596,50.816,48.113,68.656,92.442c28.022,69.63,77.846,61.087,122.174,23.786"/>
  <path style="fill:none;stroke:#B0B0B0;stroke-width:0.9425;stroke-miterlimit:10;" d="M-30.194,227.269c47.667-6.672,70.403,38.28,78.136,98.924c7.93,62.189,34.163,57.813,95.74,64.835c72.079,8.22,153.011,25.923,137.204,127.087"/>
  <path style="fill:none;stroke:#B0B0B0;stroke-width:0.9425;stroke-miterlimit:10;" d="M-23.927,336.635c11.112,57.27,29.063,94.88,103.428,101.719c74.366,6.838,106.847,38.465,110.267,82.059"/>

  <g>
    <polygon style="fill:#808080;" points="792.489,344.711 522.24,517.568 520.505,514.855 790.754,341.999"/>
    <polygon style="fill:#A0A0A0;" points="799.383,355.489 529.134,528.345 527.399,525.633 797.648,352.776"/>
    <polygon style="fill:#C0C0C0;" points="806.276,366.266 536.027,539.123 534.292,536.411 804.542,363.554"/>
    <polygon style="fill:#E0E0E0;" points="813.17,377.044 542.921,549.9 541.186,547.188 811.435,374.332"/>
    <polygon style="fill:#FFFFFF;" points="820.063,387.821 549.814,560.678 548.079,557.966 818.329,385.109"/>
  </g>

  <g>
    <polygon style="fill:#808080;" points="-36.649,140.994 223.28,-47.024 225.167,-44.415 -34.762,143.603"/>
    <polygon style="fill:#A0A0A0;" points="-44.147,130.628 215.782,-57.39 217.669,-54.781 -42.261,133.237"/>
    <polygon style="fill:#C0C0C0;" points="-51.646,120.262 208.284,-67.756 210.171,-65.147 -49.759,122.871"/>
    <polygon style="fill:#E0E0E0;" points="-59.144,109.896 200.786,-78.122 202.673,-75.513 -57.257,112.505"/>
    <polygon style="fill:#FFFFFF;" points="-66.642,99.53 193.287,-88.488 195.174,-85.88 -64.755,102.139"/>
  </g>

  <g>
    <ellipse style="fill:#FFFFFF;" cx="655.721" cy="374.221" rx="2.397" ry="2.299"/>
    <circle style="fill:#FFFFFF;" cx="474.742" cy="454.679" r="4.195"/>
    <circle style="fill:#FFFFFF;" cx="666.614" cy="171.357" r="2.124"/>
    <circle style="fill:#FFFFFF;" cx="554.953" cy="127.36" r="3.641"/>
    <circle style="fill:#FFFFFF;" cx="460.284" cy="119.774" r="1.517"/>
    <circle style="fill:#FFFFFF;" cx="167.173" cy="328.835" r="3.034"/>
    <circle style="fill:#FFFFFF;" cx="131.369" cy="307.595" r="3.641"/>
    <circle style="fill:#FFFFFF;" cx="284.296" cy="436.248" r="1.821"/>
    <circle style="fill:#FFFFFF;" cx="193.268" cy="460.522" r="1.214"/>
    <circle style="fill:#FFFFFF;" cx="46.409" cy="133.428" r="3.034"/>
    <circle style="fill:#FFFFFF;" cx="27.597" cy="114.009" r="1.214"/>
    <circle style="fill:#FFFFFF;" cx="168.994" cy="40.883" r="2.731"/>
    <circle style="fill:#FFFFFF;" cx="57.939" cy="471.142" r="2.731"/>
    <circle style="fill:#FFFFFF;" cx="496.088" cy="199.575" r="2.124"/>
    <circle style="fill:#FFFFFF;" cx="600.467" cy="46.041" r="3.641"/>
  </g>
</g>
</svg>
