<?xml version="1.0" encoding="utf-8"?>
<svg version="1.1" xmlns="http://www.w3.org/2000/svg" xmlns:xlink="http://www.w3.org/1999/xlink" x="0px" y="0px"
     viewBox="0 0 750 500" style="enable-background:new 0 0 750 500;" xml:space="preserve">
<g id="BACKGROUND">
    <!-- Cambiado el color de fondo a negro -->
    <rect style="fill:#000000;" width="750" height="500"/>
</g>
<g id="OBJECTS">
    <g>
        <defs>
            <rect id="SVGID_1_" width="750" height="500"/>
        </defs>
        <clipPath id="SVGID_00000145036623963403490180000014867555924403780783_">
            <use xlink:href="#SVGID_1_"  style="overflow:visible;"/>
        </clipPath>
        
        <!-- Cambiado gradiente a escala de grises -->
        <linearGradient id="SVGID_00000139993695150615237400000003503904173797545915_" gradientUnits="userSpaceOnUse" x1="4.9688" y1="441.2494" x2="785.1601" y2="5.4725">
            <stop  offset="0" style="stop-color:#FFFFFF"/>
            <stop  offset="1" style="stop-color:#808080;stop-opacity:0.5"/>
        </linearGradient>
        
        <!-- Modificado stroke para ser blanco -->
        <path style="clip-path:url(#SVGID_00000145036623963403490180000014867555924403780783_);fill:none;stroke:url(#SVGID_00000139993695150615237400000003503904173797545915_);stroke-miterlimit:10;" d="
            M216.281,529.682c-7.383-151.879,83.545-206.9,160.317-198.287c102.834,11.537,169.612,61.394,220.216,31.876
            c41.839-24.406,32.542-66.245,69.832-140.511c33.046-65.814,102.755-67.522,102.755-67.522l-1.502-179.282H386.09
            c0,0-6.328,118.128-75.94,158.208c-69.611,40.079-120.91-11.017-160.784,14.682c-39.874,25.699-6.392,108.085-55.204,178.979
            c-37.663,54.702-122.576,53.143-122.576,53.143"/>
        
        <!-- Otro gradiente de escala de grises -->
        <linearGradient id="SVGID_00000065044366631803762370000010248525161203948191_" gradientUnits="userSpaceOnUse" x1="-106.4616" y1="652.9391" x2="691.3582" y2="-8.6666">
            <stop  offset="0" style="stop-color:#FFFFFF"/>
            <stop  offset="1" style="stop-color:#808080;stop-opacity:0.5"/>
        </linearGradient>
        
        <path style="opacity:0.29;clip-path:url(#SVGID_00000145036623963403490180000014867555924403780783_);fill:url(#SVGID_00000065044366631803762370000010248525161203948191_);" d="
            M282.164,335.846c71.346-44.867,149.313-15.446,189.031-2.207c39.719,13.24,77.966,30.892,110.33,16.182
            c32.363-14.711,37.817-52.925,47.074-82.379C644.247,217.651,666.091,143.789,750,134.32V0H402.307
            c-5.591,28.242-22.323,106.494-56.151,135.047c-37.971,32.05-64.541,35.494-105.916,31.628
            c-37.378-3.493-62.938-15.816-79.437-5.149c-12.853,8.31-17.653,32.363-19.124,55.165c-1.471,22.802-3.678,86.793-30.892,120.627
            C87.315,366.497,52.901,396.219,0,399.6V500h201.703C199.379,440.992,218.553,375.849,282.164,335.846z"/>
        
        <!-- Modificado más gradientes y colores -->
        <linearGradient id="SVGID_00000029013021270093469250000003267795885311449223_" gradientUnits="userSpaceOnUse" x1="112.0273" y1="89.7958" x2="239.6958" y2="304.6526" gradientTransform="matrix(1 0.0018 -0.0018 1 6.5313 -3.684)">
            <stop  offset="0" style="stop-color:#FFFFFF"/>
            <stop  offset="1" style="stop-color:#808080;stop-opacity:0.5"/>
        </linearGradient>
        
        <!-- Siguientes ajustes de colores similares -->
        <!-- Continúa aplicando el mismo esquema de blanco y grises en los demás gradientes y formas -->
        
    </g>
</g>
</svg>
