<?xml version="1.0" encoding="utf-8"?>
<!-- Generator: Adobe Illustrator 27.5.0, SVG Export Plug-In . SVG Version: 6.00 Build 0)  -->
<svg version="1.1" xmlns="http://www.w3.org/2000/svg" xmlns:xlink="http://www.w3.org/1999/xlink" x="0px" y="0px"
	 viewBox="0 0 750 500" style="enable-background:new 0 0 750 500;" xml:space="preserve">
<g id="BACKGROUND">
	<rect style="fill:#000000;" width="750" height="500"/>
</g>
<g id="OBJECTS">
	<g>
		<defs>
			<rect id="SVGID_1_" width="750" height="500"/>
		</defs>
		<clipPath id="SVGID_00000016790343243619246900000016160082818865371052_">
			<use xlink:href="#SVGID_1_"  style="overflow:visible;"/>
		</clipPath>
		
			<linearGradient id="SVGID_00000120534584559551721380000002156567090114878904_" gradientUnits="userSpaceOnUse" x1="502.6046" y1="313.7071" x2="419.0875" y2="552.2263">
			<stop  offset="0" style="stop-color:#FFFFFF"/>
			<stop  offset="1" style="stop-color:#CCCCCC;stop-opacity:0"/>
		</linearGradient>
		
			<path style="clip-path:url(#SVGID_00000016790343243619246900000016160082818865371052_);fill:url(#SVGID_00000120534584559551721380000002156567090114878904_);" d="
			M437.938,430.063c-20.19-4.729-32.999-15.807-45.116-46.272c-7.456-18.746-21.81-35.311-42.927-37.042
			c-37.445-3.069-58.506,12.809-90.701,64.045c-34.376,54.706-53.5,72.492-71.579,89.206h499.52
			c-45.533-17.327-66.048-30.708-105.235-71.944C545.69,389.954,480.529,440.039,437.938,430.063z"/>
		
			<linearGradient id="SVGID_00000101067349695208500120000016597859360762096042_" gradientUnits="userSpaceOnUse" x1="388.5245" y1="274.6765" x2="331.384" y2="526.3521">
			<stop  offset="0" style="stop-color:#CCCCCC"/>
			<stop  offset="1" style="stop-color:#AAAAAA;stop-opacity:0"/>
		</linearGradient>
		
			<path style="clip-path:url(#SVGID_00000016790343243619246900000016160082818865371052_);fill:url(#SVGID_00000101067349695208500120000016597859360762096042_);" d="
			M496.818,447.294c-45.552,3.307-100.261,38.527-139.575,4.173c-13.018-11.376-20.44-24.445-38.682-30.4
			c-22.745-7.425-47.514,0.095-68.656,8.073c-45.986,17.354-87.877,42.033-129.598,65.92c-7.006,4.011-14.491,8.284-22.331,12.251
			h475.462c-5.331-14.63-9.786-27.747-23.465-43.115C536.796,449.39,517.777,445.772,496.818,447.294z"/>
		
			<linearGradient id="SVGID_00000012455409505587432540000007887656893766834575_" gradientUnits="userSpaceOnUse" x1="322.9278" y1="275.7202" x2="243.811" y2="-82.146">
			<stop  offset="0" style="stop-color:#FFFFFF"/>
			<stop  offset="1" style="stop-color:#CCCCCC;stop-opacity:0"/>
		</linearGradient>
		
			<path style="clip-path:url(#SVGID_00000016790343243619246900000016160082818865371052_);fill:url(#SVGID_00000012455409505587432540000007887656893766834575_);" d="
			M142.441,130.839c40.393,15.204,76.026,23.916,120.628,13.742c35.338-8.061,66.844-25.662,91.593-46.608
			c22.699-19.212,52.761-59.466,90.425-39.914c20.505,10.645,53.117,27.767,80.879,10.683C553.729,51.656,538.78,18.555,551.695,0H0
			v125.526C43,107.7,99.043,114.504,142.441,130.839z"/>
		
			<linearGradient id="SVGID_00000114063736309714432680000010646390739331141252_" gradientUnits="userSpaceOnUse" x1="500.3505" y1="252.288" x2="778.2833" y2="188.2545">
			<stop  offset="0" style="stop-color:#FFFFFF"/>
			<stop  offset="1" style="stop-color:#CCCCCC;stop-opacity:0"/>
		</linearGradient>
		
			<path style="clip-path:url(#SVGID_00000016790343243619246900000016160082818865371052_);fill:url(#SVGID_00000114063736309714432680000010646390739331141252_);" d="
			M687.596,94.71c-27.854,25.187-65.48,62.918-62.954,89.517s16.918,31.595,35.969,37.447c19.051,5.852,39.535,10.023,41.484,30.069
			c1.949,20.046-12.807,33.41-20.046,61.809c-9.203,36.102,21.938,61.391,67.951,78.341V-2.352
			C743.076,33.313,721.804,63.777,687.596,94.71z"/>
		
			<linearGradient id="SVGID_00000000927802383851232770000003785771751599470476_" gradientUnits="userSpaceOnUse" x1="130.1429" y1="183.7226" x2="-43.622" y2="264.9211">
			<stop  offset="0" style="stop-color:#AAAAAA"/>
			<stop  offset="1" style="stop-color:#666666"/>
		</linearGradient>
		
			<path style="opacity:0.29;clip-path:url(#SVGID_00000016790343243619246900000016160082818865371052_);fill:url(#SVGID_00000000927802383851232770000003785771751599470476_);" d="
			M52.084,402.178c26.583-7.628,45.274-26.472,44.443-47.56c-0.761-19.322-15.796-35.703-14.104-51.902
			c1.753-16.779,13.472-29.948,21.682-43.928c15.295-26.046,36.022-64.189,4.953-86.701c-26.583-19.262-59.771-26.835-82.774-52.364
			C10.929,102.681-0.376,85.209-6.377,64.366v344.185C11.337,409.413,31.882,407.974,52.084,402.178z"/>
	</g>
</g>
</svg>
